<svg data-v-fde0c5aa="" xmlns="http://www.w3.org/2000/svg" viewBox="0 0 300 300" class="font"><!----><defs data-v-fde0c5aa=""><!----></defs><rect data-v-fde0c5aa="" fill="transparent" x="0" y="0" width="300px" height="300px" class="logo-background-square"></rect><defs data-v-fde0c5aa=""><linearGradient data-v-fde0c5aa="" gradientTransform="rotate(25)" id="2483d79e-1108-4b76-88dc-7becbc4fada2" x1="0%" y1="0%" x2="100%" y2="0%"><stop data-v-fde0c5aa="" offset="0%" stop-color="#920DE9" stop-opacity="1"></stop><stop data-v-fde0c5aa="" offset="100%" stop-color="#1536F1" stop-opacity="1"></stop></linearGradient></defs><g data-v-fde0c5aa="" id="3577037c-25e2-461b-844f-b21e9933a7a0" fill="url(#2483d79e-1108-4b76-88dc-7becbc4fada2)" transform="matrix(2.7713192431207982,0,0,2.7713192431207982,37.7552314064648,121.45541192800258)"><path d="M0.81 9.97C0.81 12.56 2.58 14.20 5.33 14.20C8.08 14.20 9.80 12.56 9.80 9.97L9.80 4.28L7.32 4.28L7.32 9.97C7.32 11.30 6.52 12.11 5.35 12.11C4.16 12.11 3.30 11.30 3.30 9.97L3.30 4.28L0.81 4.28ZM11.58 14.08L14 14.08L14 10.21C14.13 9.14 15.05 8.48 16.45 8.61L16.45 6.43C15.37 6.44 14.52 6.93 14 7.81L14 6.54L11.58 6.54ZM17.63 14.08L20.05 14.08L20.05 13.08C20.58 13.78 21.38 14.17 22.36 14.17C24.47 14.17 25.84 12.64 25.84 10.35C25.84 8.01 24.43 6.45 22.30 6.45C21.35 6.45 20.58 6.85 20.05 7.53L20.05 3.70L17.63 3.70ZM20.05 10.28C20.05 9.13 20.73 8.32 21.71 8.32C22.72 8.32 23.41 9.13 23.41 10.28C23.41 11.44 22.72 12.25 21.71 12.25C20.73 12.25 20.05 11.45 20.05 10.28ZM26.56 11.83C26.56 13.22 27.54 14.20 29.15 14.20C30.17 14.20 30.97 13.86 31.46 13.22L31.46 14.08L33.82 14.08L33.82 9.16C33.81 7.45 32.61 6.43 30.53 6.43C29.27 6.43 28.21 6.73 27.03 7.28L27.72 8.88C28.52 8.47 29.34 8.25 29.97 8.25C30.95 8.25 31.44 8.69 31.44 9.44L31.44 9.55L29.46 9.55C27.58 9.56 26.56 10.40 26.56 11.83ZM28.83 11.66C28.83 11.10 29.19 10.85 29.92 10.85L31.44 10.85L31.44 11.52C31.29 12.14 30.65 12.56 29.89 12.56C29.22 12.56 28.83 12.21 28.83 11.66ZM35.55 14.08L37.97 14.08L37.97 10.09C38.07 9.20 38.63 8.57 39.51 8.57C40.32 8.57 40.84 9.11 40.84 10.00L40.84 14.08L43.25 14.08L43.25 9.32C43.25 7.56 42.15 6.43 40.49 6.43C39.37 6.44 38.50 6.89 37.97 7.77L37.97 6.54L35.55 6.54ZM44.98 14.08L52.81 14.08L52.81 12.12L47.47 12.12L47.47 10.15L52.15 10.15L52.15 8.19L47.47 8.19L47.47 6.24L52.65 6.24L52.65 4.28L44.98 4.28ZM53.79 10.28C53.79 12.61 55.19 14.18 57.32 14.18C58.28 14.18 59.05 13.79 59.58 13.09L59.58 14.08L62.01 14.08L62.01 3.70L59.58 3.70L59.58 7.53C59.05 6.83 58.25 6.44 57.26 6.44C55.17 6.44 53.79 7.97 53.79 10.28ZM56.21 10.33C56.22 9.17 56.90 8.37 57.90 8.37C58.91 8.37 59.58 9.17 59.58 10.33C59.58 11.49 58.91 12.31 57.90 12.31C56.90 12.31 56.22 11.49 56.21 10.33ZM63.39 10.02C63.39 12.22 64.74 13.68 66.64 13.68C67.58 13.68 68.32 13.31 68.81 12.67L68.81 13.47C68.81 14.41 68.11 15.02 66.95 15.02C66.14 15.02 65.30 14.74 64.61 14.27L63.77 15.90C64.62 16.48 65.81 16.90 67.13 16.90C69.57 16.90 71.22 15.54 71.22 13.40L71.22 6.54L68.81 6.54L68.81 7.46C68.31 6.80 67.55 6.44 66.58 6.45C64.69 6.45 63.39 7.88 63.39 10.02ZM65.65 10.09C65.65 9.00 66.29 8.25 67.24 8.25C68.18 8.25 68.81 8.99 68.81 10.09C68.81 11.17 68.18 11.93 67.24 11.93C66.29 11.93 65.65 11.17 65.65 10.09ZM72.44 10.33C72.44 12.63 73.98 14.17 76.44 14.17C77.83 14.17 78.96 13.68 79.73 12.84L78.46 11.59C77.95 12.10 77.31 12.36 76.65 12.36C75.75 12.36 75.11 11.86 74.87 10.96L80.18 10.96C80.35 8.20 79.03 6.45 76.37 6.45C74.03 6.45 72.44 7.99 72.44 10.33ZM74.83 9.66C74.98 8.75 75.56 8.13 76.40 8.13C77.27 8.13 77.85 8.74 77.85 9.66Z"></path></g><!----><!----></svg>